<svg width="27" height="27" viewBox="0 0 27 27" fill="none" xmlns="http://www.w3.org/2000/svg">
<path d="M5.16694 16.6976L3.53081 15.0614C2.86343 14.394 2.86343 13.2961 3.53081 12.6287L5.16694 10.9925C5.44681 10.7127 5.67285 10.1637 5.67285 9.77617V7.46186C5.67285 6.51462 6.44788 5.73963 7.39512 5.73963H9.7094C10.0969 5.73963 10.6459 5.51361 10.9258 5.23374L12.5619 3.59758C13.2293 2.9302 14.3272 2.9302 14.9946 3.59758L16.6308 5.23374C16.9106 5.51361 17.4596 5.73963 17.8471 5.73963H20.1614C21.1086 5.73963 21.8836 6.51462 21.8836 7.46186V9.77617C21.8836 10.1637 22.1097 10.7127 22.3895 10.9925L24.0257 12.6287C24.6931 13.2961 24.6931 14.394 24.0257 15.0614L22.3895 16.6976C22.1097 16.9774 21.8836 17.5264 21.8836 17.9139V20.2281C21.8836 21.1753 21.1086 21.9505 20.1614 21.9505H17.8471C17.4596 21.9505 16.9106 22.1765 16.6308 22.4563L14.9946 24.0925C14.3272 24.7599 13.2293 24.7599 12.5619 24.0925L10.9258 22.4563C10.6459 22.1765 10.0969 21.9505 9.7094 21.9505H7.39512C6.44788 21.9505 5.67285 21.1753 5.67285 20.2281V17.9139C5.67285 17.5156 5.44681 16.9667 5.16694 16.6976Z" stroke="#4BD449" stroke-width="1.61462" stroke-linecap="round" stroke-linejoin="round"/>
<path d="M10.5605 17.0631L17.019 10.6046" stroke="#4BD449" stroke-width="1.61462" stroke-linecap="round" stroke-linejoin="round"/>
<path d="M16.4757 16.5249H16.4853" stroke="#4BD449" stroke-width="2.15282" stroke-linecap="round" stroke-linejoin="round"/>
<path d="M11.0928 11.1428H11.1025" stroke="#4BD449" stroke-width="2.15282" stroke-linecap="round" stroke-linejoin="round"/>
</svg>
