<svg width="35" height="35" viewBox="0 0 35 35" fill="none" xmlns="http://www.w3.org/2000/svg">
<path d="M17.4998 2.91663C9.46442 2.91663 2.9165 9.46454 2.9165 17.5C2.9165 25.5354 9.46442 32.0833 17.4998 32.0833C25.5353 32.0833 32.0832 25.5354 32.0832 17.5C32.0832 9.46454 25.5353 2.91663 17.4998 2.91663ZM21.5686 18.2729L16.4207 23.4208C16.2019 23.6395 15.9248 23.7416 15.6478 23.7416C15.3707 23.7416 15.0936 23.6395 14.8748 23.4208C14.4519 22.9979 14.4519 22.2979 14.8748 21.875L19.2498 17.5L14.8748 13.125C14.4519 12.702 14.4519 12.002 14.8748 11.5791C15.2978 11.1562 15.9978 11.1562 16.4207 11.5791L21.5686 16.727C22.0061 17.15 22.0061 17.85 21.5686 18.2729Z" fill="#2A2A2A"/>
</svg>
