<svg width="65" height="65" viewBox="0 0 65 65" fill="none" xmlns="http://www.w3.org/2000/svg">
<rect opacity="0.3" x="0.75" y="0.75" width="63.5" height="63.5" rx="9.25" fill="#F0F0F0" stroke="#CBCBCB" stroke-width="1.5"/>
<path d="M26.6668 39.7917H22.2918C21.9051 39.7917 21.5341 39.6381 21.2606 39.3646C20.9871 39.0911 20.8335 38.7201 20.8335 38.3334V31.0417C20.8335 30.2682 21.1408 29.5263 21.6878 28.9793C22.2347 28.4323 22.9766 28.125 23.7502 28.125H41.2502C42.0237 28.125 42.7656 28.4323 43.3126 28.9793C43.8595 29.5263 44.1668 30.2682 44.1668 31.0417V38.3334C44.1668 38.7201 44.0132 39.0911 43.7397 39.3646C43.4662 39.6381 43.0953 39.7917 42.7085 39.7917H38.3335M26.6668 20.8334H38.3335V28.125H26.6668V20.8334ZM26.6668 36.875H38.3335V42.7084H26.6668V36.875Z" stroke="#A1A1A1" stroke-width="1.5" stroke-linejoin="round"/>
<path d="M25.2083 33.9583C26.0137 33.9583 26.6667 33.3054 26.6667 32.5C26.6667 31.6945 26.0137 31.0416 25.2083 31.0416C24.4029 31.0416 23.75 31.6945 23.75 32.5C23.75 33.3054 24.4029 33.9583 25.2083 33.9583Z" fill="#A1A1A1"/>
</svg>
