<svg width="150" height="150" viewBox="0 0 150 150" fill="none" xmlns="http://www.w3.org/2000/svg">
<g clip-path="url(#clip0_142_2891)">
<path d="M141.533 80.0097L139.043 84.99H150V80.0097H141.533Z" fill="#FF6002"/>
<path d="M139.044 119.998L136.554 125.008H150V119.998H139.044Z" fill="#FF6002"/>
<path d="M129.991 95.0096H150V90H135.001C134.122 90 133.331 89.5606 132.862 88.7989C132.393 88.0372 132.364 87.129 132.745 86.3673L137.755 76.3775C138.165 75.528 139.044 75.0006 139.981 75.0006H149.326C147.481 69.2001 142.061 65.0108 135.674 65.0108H119.298C112.912 65.0108 107.492 69.2294 105.646 75.0006H127.472C128.351 75.0006 129.142 75.4401 129.61 76.1725C130.079 76.9048 130.108 77.8423 129.727 78.604L124.718 88.5938C124.308 89.4434 123.429 89.9707 122.491 89.9707H107.492H105.002H99.9924V82.471C99.9924 81.0941 98.8791 79.9809 97.5022 79.9809H89.0651C87.8932 78.9555 86.4871 78.2524 84.993 77.8423V72.4812H87.4831C88.86 72.4812 89.9733 71.368 89.9733 69.9911V60.0012H92.4634C96.5941 60.0012 99.9631 56.6322 99.9631 52.5015C99.9631 51.1247 98.8498 50.0114 97.4729 50.0114C96.096 50.0114 94.9828 51.1247 94.9828 52.5015C94.9828 53.8784 93.8696 54.9917 92.4927 54.9917H90.0025V47.492H92.4927C96.6234 47.492 99.9924 44.123 99.9924 39.9923C99.9924 38.6154 98.8791 37.5022 97.5022 37.5022C96.1253 37.5022 95.0121 38.6154 95.0121 39.9923C95.0121 41.3692 93.8989 42.4824 92.522 42.4824H90.0318V34.9827H92.522C96.6527 34.9827 100.022 31.6137 100.022 27.483C100.022 26.1061 98.9084 24.9929 97.5315 24.9929C96.1546 24.9929 95.0414 26.1061 95.0414 27.483C95.0414 28.8599 93.9282 29.9732 92.5513 29.9732H90.0611V22.5028H100.051C101.428 22.5028 102.541 21.3895 102.541 20.0126V9.99353C102.541 8.61663 101.428 7.5034 100.051 7.5034H95.0414V5.01327C95.0414 3.63637 93.9282 2.52314 92.5513 2.52314C91.1744 2.52314 90.0611 3.63637 90.0611 5.01327V7.5034H85.0516V2.49384C85.0516 1.11694 83.9383 0.00370789 82.5614 0.00370789C81.1845 0.00370789 80.0713 1.11694 80.0713 2.49384V7.5034H72.5716V5.01327C72.5716 3.63637 71.4584 2.52314 70.0815 2.52314C68.7046 2.52314 67.5914 3.63637 67.5914 5.01327V7.5034H65.1012C63.7243 7.5034 62.6111 8.61663 62.6111 9.99353V19.9834C62.6111 21.3603 63.7243 22.4735 65.1012 22.4735H75.0032V29.9732H72.513C68.3823 29.9732 65.0133 33.3422 65.0133 37.4729C65.0133 38.8498 66.1266 39.963 67.5035 39.963C68.8804 39.963 69.9936 38.8498 69.9936 37.4729C69.9936 36.096 71.1068 34.9827 72.4837 34.9827H74.9739V42.4824H72.4837C68.353 42.4824 64.984 45.8514 64.984 49.9821C64.984 51.359 66.0973 52.4723 67.4742 52.4723C68.8511 52.4723 69.9643 51.359 69.9643 49.9821C69.9643 48.6052 71.0775 47.492 72.4544 47.492H74.9446V54.9917H72.4544C68.3237 54.9917 64.9547 58.3607 64.9547 62.4914C64.9547 63.8683 66.068 64.9815 67.4449 64.9815C68.8218 64.9815 69.935 63.8683 69.935 62.4914C69.935 61.1145 71.0482 60.0012 72.4251 60.0012H74.9153V69.9911C74.9153 71.368 76.0285 72.4812 77.4054 72.4812H79.8955V77.8423C75.5891 78.9555 72.3959 82.8519 72.3959 87.4806C72.3959 92.9882 76.8781 97.4704 82.3857 97.4704C83.2352 97.4704 84.0848 97.3532 84.8758 97.1482V102.48H75.0032C72.7767 102.48 70.7553 103.242 69.0854 104.472L3.37524 80.1567C2.08623 79.6879 0.65074 80.3324 0.152713 81.6215C-0.316017 82.9105 0.328487 84.3459 1.6175 84.844L65.775 108.603C65.5993 109.042 65.4528 109.511 65.3356 110.009H2.49637C1.11947 110.009 0.00623507 111.122 0.00623507 112.499C0.00623507 113.876 1.11947 114.989 2.49637 114.989H65.3356C66.4488 119.296 70.3452 122.489 74.9739 122.489H84.9637V129.989C84.9637 131.365 86.0769 132.479 87.4538 132.479H104.943V134.969H117.453C118.39 134.969 119.269 135.496 119.679 136.346L126.476 149.968H133.389L127.706 138.572C127.325 137.811 127.355 136.873 127.823 136.141C128.292 135.408 129.083 134.969 129.962 134.969H150V129.959H132.511C131.632 129.959 130.841 129.52 130.372 128.758C129.903 128.026 129.874 127.088 130.255 126.327L135.264 116.337C135.674 115.487 136.553 114.96 137.491 114.96H150V109.95H135.001C134.063 109.95 133.184 109.423 132.774 108.573L127.765 98.5836C127.384 97.822 127.413 96.8845 127.882 96.1521C128.321 95.449 129.142 95.0096 129.991 95.0096ZM80.0127 22.5028H85.0223V30.0025H80.0127V22.5028ZM80.0127 35.012H85.0223V42.5117H80.0127V35.012ZM80.0127 47.492H85.0223V54.9917H80.0127V47.492ZM80.0127 60.0012H85.0223V67.5009H80.0127V60.0012ZM105.002 107.49V117.479V127.469H90.0025V119.969V104.97V93.0175C90.0025 92.0214 89.4166 91.1425 88.5085 90.7324C87.6003 90.3223 86.5457 90.498 85.8133 91.1718C85.1395 91.7578 84.0262 92.4901 82.4736 92.4901C79.7198 92.4901 77.464 90.2344 77.464 87.4806C77.464 84.7268 79.7198 82.471 82.4736 82.471C83.8797 82.471 85.1981 83.0569 86.1648 84.1409C86.6335 84.6682 87.3073 84.9612 88.0104 84.9612H94.9535V92.4608C94.9535 93.8377 96.0667 94.951 97.4436 94.951H104.943V97.4997H105.002V107.49ZM115.988 99.9898H110.041V94.9803H117.54C118.478 94.9803 119.357 95.5076 119.767 96.3572L124.777 106.347C125.157 107.109 125.128 108.046 124.659 108.779C124.191 109.511 123.4 109.98 122.521 109.98H110.011V104.999H118.478L115.988 99.9898ZM127.237 118.622L122.228 128.612C121.818 129.461 120.939 129.989 120.001 129.989H110.011V124.979H118.478L120.968 119.969H110.011V114.96H125.011C125.89 114.96 126.681 115.399 127.149 116.132C127.589 116.923 127.618 117.831 127.237 118.622Z" fill="#FF6002"/>
<path d="M134.034 140.007L138.868 149.646C143.819 148.532 147.832 144.812 149.327 140.007H134.034Z" fill="#FF6002"/>
<path d="M134.034 99.9894L136.554 104.999H150V99.9894H134.034Z" fill="#FF6002"/>
<path d="M115.959 140.007H105.676C107.521 145.808 112.941 149.997 119.328 149.997H120.968L115.959 140.007Z" fill="#FF6002"/>
<path d="M105.002 80.0097V84.99H120.968L123.458 80.0097H105.002Z" fill="#FF6002"/>
</g>
<defs>
<clipPath id="clip0_142_2891">
<rect width="150" height="150" fill="white"/>
</clipPath>
</defs>
</svg>
