<svg width="150" height="150" viewBox="0 0 150 150" fill="none" xmlns="http://www.w3.org/2000/svg">
<path d="M148.833 116.871C148.79 116.886 144.394 118.363 139.727 118.363C132.572 118.363 128.901 115.001 128.817 108.394C128.901 101.765 132.573 98.4033 139.728 98.4033C144.383 98.4033 148.79 99.8802 148.834 99.8955C148.923 99.9261 149.015 99.9408 149.106 99.9417C149.597 99.9609 150 99.5538 150 99.0633C150 98.9154 149.963 98.7753 149.898 98.6529C149.675 98.1084 148.5 95.4486 145.864 92.778C143.195 90.0732 138.459 86.8482 131.063 86.8482C119.385 86.8482 114.241 96.576 112.672 100.404H80.3779V84.6477H96.7147C97.645 84.6477 98.3983 83.8935 98.3983 82.9641V62.8029C98.3983 61.8729 97.6444 61.1193 96.7147 61.1193H53.5822C52.6522 61.1193 51.8986 61.8732 51.8986 62.8029V82.9641C51.8986 83.8944 52.6525 84.6477 53.5822 84.6477H70.4545V100.404H37.3228C35.7538 96.576 30.6091 86.8476 18.9316 86.8476C11.5351 86.8476 6.80015 90.0726 4.13045 92.7777C1.23725 95.7099 0.104455 98.6274 0.0576547 98.7504C-0.0635453 99.0687 0.00995468 99.4281 0.246055 99.6726C0.482155 99.9177 0.838855 100.004 1.16135 99.8952C1.20515 99.8805 5.61276 98.403 10.2667 98.403C17.4226 98.403 21.0937 101.764 21.1783 108.371C21.0937 115.001 17.4229 118.363 10.2673 118.363C5.61245 118.363 1.20515 116.885 1.16135 116.87C0.839455 116.762 0.482155 116.848 0.246055 117.093C0.00965468 117.338 -0.0635453 117.698 0.0576547 118.015C0.104455 118.138 1.23725 121.056 4.13075 123.988C6.80046 126.694 11.5354 129.919 18.9319 129.919C30.6112 129.919 35.7547 120.19 37.3231 116.362H70.4548V137.756C70.4548 138.241 70.8481 138.635 71.3335 138.635H79.4995C79.9849 138.635 80.3785 138.242 80.3785 137.756V116.362H112.673C114.241 120.19 119.384 129.919 131.063 129.919C138.46 129.919 143.195 126.694 145.865 123.988C148.759 121.056 149.891 118.138 149.938 118.015C150.059 117.697 149.986 117.338 149.75 117.093C149.513 116.848 149.156 116.761 148.833 116.871Z" fill="#FF6002"/>
<path d="M4.02507 85.4199C4.94427 85.8171 6.00627 85.6854 6.80097 85.0761C6.86157 85.0293 12.9597 81.0573 20.1492 81.0573C25.8639 81.0573 30.7251 83.4327 34.5981 89.3817C35.118 90.1809 35.9976 90.6375 36.9129 90.6375C36.9519 90.6375 36.9909 90.6366 37.0302 90.6345C38.5032 90.5754 39.6792 89.3631 39.6792 87.8754C39.6792 87.7593 39.672 87.6456 39.6582 87.5337C39.1083 78.3966 41.3085 65.7321 49.1364 57.3858C55.1301 50.9955 63.7197 47.7555 74.6673 47.7555L74.8641 47.7558L75.0708 47.7552C86.2017 47.7552 94.8837 50.9955 100.877 57.3855C110.494 67.6383 110.339 82.5144 110.062 86.8299C109.982 88.0827 110.757 89.2317 111.948 89.6274C113.14 90.0231 114.448 89.565 115.133 88.5132C118.876 82.7625 123.546 80.8074 129.011 80.8074C136.35 80.8074 142.809 84.9789 142.868 85.0275C143.656 85.6677 144.732 85.824 145.669 85.4337C146.607 85.0446 147.255 84.1716 147.358 83.1621C147.421 82.5363 148.85 67.695 143.621 55.9464C143.017 54.5886 141.446 53.9523 140.066 54.5079L139.179 54.8652C135.951 56.1651 128.569 59.1396 124.412 60.7956C123.793 59.5989 122.843 58.0155 121.394 55.8597C120.561 54.6204 119.734 53.4483 119.066 52.5213C121.689 50.0073 126.704 45.1779 130.297 41.5863C131.209 40.674 131.368 39.252 130.681 38.1606C121.973 24.3486 110.815 17.8026 102.987 14.7423C94.4445 11.4027 87.9522 11.364 87.6801 11.364C86.2992 11.364 85.1313 12.3831 84.9441 13.7514L82.8681 28.923H66.8616L64.7859 13.7508C64.5987 12.3828 63.4305 11.3637 62.0499 11.3637C61.7778 11.3637 55.2852 11.4018 46.7427 14.7414C38.9154 17.8017 27.7572 24.3483 19.05 38.16C18.3621 39.2514 18.5214 40.6731 19.4334 41.5851C23.0256 45.1773 28.041 50.007 30.6639 52.521C29.9961 53.448 29.169 54.6201 28.3362 55.8594C26.8866 58.0152 25.938 59.5986 25.3185 60.7953C21.015 59.0811 13.2552 55.9539 10.2705 54.7512L9.66447 54.507C8.28507 53.9514 6.71367 54.5874 6.10917 55.9458C0.88017 67.6947 2.30907 82.536 2.37267 83.1618C2.47377 84.159 3.10617 85.0233 4.02507 85.4199ZM10.1811 60.6708C15.0483 62.6316 23.9673 66.2205 25.9395 66.9789C26.7885 67.3056 28.4157 67.7028 29.6883 64.5519C30.9609 61.401 33.4869 57.8967 36.5283 53.8656C37.3731 52.746 37.2444 51.1707 36.2292 50.2032C36.159 50.1357 29.8398 44.1126 24.93 39.2616C31.0725 30.2388 39.0003 23.7555 48.5232 19.977C53.2275 18.1104 57.258 17.3712 59.6664 17.0787L61.716 32.0598C61.9035 33.4275 63.0717 34.4466 64.4523 34.4466H85.2777C86.6583 34.4466 87.8265 33.4275 88.014 32.0598L90.0636 17.0778C96.1548 17.8206 112.658 21.4626 124.799 39.2631C119.89 44.1126 113.571 50.1357 113.501 50.2032C112.485 51.1707 112.357 52.746 113.202 53.8656C116.243 57.8958 118.888 61.7328 120.042 64.5519C121.195 67.371 122.941 67.3062 123.791 66.9789C125.767 66.2196 134.645 62.6466 139.549 60.6711C141.658 66.774 142.058 73.5639 142.048 77.9502C138.86 76.2183 134.19 75.2853 129.011 75.2853C125.239 75.2853 120.25 75.3744 115.48 79.6149C114.878 72.2625 112.557 61.7649 104.906 53.6076C97.8261 46.0596 87.7881 42.2325 75.0705 42.2325L74.8629 42.2331H74.6673C62.1327 42.2331 52.1874 46.0599 45.108 53.6076C37.2015 62.0376 34.8396 72.8955 34.2411 80.4432C29.2917 75.9918 24.0822 75.534 20.1495 75.534C15.1941 75.534 10.7445 76.5639 7.68387 78.1134C7.66227 73.7334 8.04567 66.8502 10.1811 60.6708Z" fill="#FF6002"/>
</svg>
